<?xml version="1.0" encoding="utf-8"?>
<!-- Generator: Adobe Illustrator 22.0.1, SVG Export Plug-In . SVG Version: 6.00 Build 0)  -->
<svg version="1.1"
	 id="svg2" inkscape:version="0.48.4 r9939" sodipodi:docname="devlol-logo.svg" xmlns:cc="http://creativecommons.org/ns#" xmlns:dc="http://purl.org/dc/elements/1.1/" xmlns:inkscape="http://www.inkscape.org/namespaces/inkscape" xmlns:rdf="http://www.w3.org/1999/02/22-rdf-syntax-ns#" xmlns:sodipodi="http://sodipodi.sourceforge.net/DTD/sodipodi-0.dtd" xmlns:svg="http://www.w3.org/2000/svg"
	 xmlns="http://www.w3.org/2000/svg" xmlns:xlink="http://www.w3.org/1999/xlink" x="0px" y="0px" viewBox="0 0 400.4 400.4"
	 style="enable-background:new 0 0 400.4 400.4;" xml:space="preserve">
<style type="text/css">
	.st0{fill:#33CCFF;}
</style>
<sodipodi:namedview  bordercolor="#666666" borderopacity="1.0" fit-margin-bottom="23" fit-margin-left="23" fit-margin-right="23" fit-margin-top="23" id="base" inkscape:current-layer="layer1" inkscape:cx="123.67031" inkscape:cy="220.4483" inkscape:document-units="px" inkscape:guide-bbox="true" inkscape:pageopacity="0.0" inkscape:pageshadow="2" inkscape:window-height="876" inkscape:window-maximized="1" inkscape:window-width="1545" inkscape:window-x="55" inkscape:window-y="24" inkscape:zoom="2" pagecolor="#ffffff" showgrid="false" showguides="true">
	<sodipodi:guide  id="guide2983" orientation="1,0" position="200.25,380.5625"></sodipodi:guide>
</sodipodi:namedview>
<path class="st0" d="M369.4,227.9c2.2-11.2,3.3-22.5,3.3-33.9c0-11.4-1.1-22.7-3.3-33.9l-28.3,6.2c-3.7-18.8-11.1-36.6-21.7-52.5
	l24.1-16.3c-6.3-9.5-13.5-18.3-21.6-26.3c-8.1-8.1-16.9-15.3-26.3-21.6l-15.6,24.4c-15.9-10.6-33.7-18-52.5-21.8l5.5-28.6
	c-11.2-2.2-22.5-3.3-33.9-3.3c-11.4,0-22.7,1.1-33.9,3.3l6.2,28.3c-18.8,3.7-36.6,11.1-52.5,21.8l-16.3-24.1
	C93.1,55.8,84.2,63,76.2,71.1c-8.1,8.1-15.3,16.8-21.6,26.3L79,113.1c-10.6,15.9-18,33.7-21.8,52.5L28.6,160
	c-2.2,11.2-3.3,22.5-3.3,33.9s1.1,22.7,3.3,33.9l28.3-6.2c3.7,18.8,11.1,36.6,21.8,52.5l-24.1,16.3c6.3,9.5,13.6,18.3,21.6,26.3
	s16.8,15.3,26.3,21.6l15.6-24.4c15.9,10.6,33.7,18,52.5,21.8l-5.5,28.6c11.2,2.2,22.5,3.3,33.9,3.3c11.4,0,22.7-1.1,33.9-3.3
	l-6.2-28.3c18.8-3.7,36.6-11.1,52.5-21.7l16.3,24.1c9.5-6.3,18.3-13.6,26.3-21.6s15.3-16.9,21.6-26.3L319,274.8
	c10.6-15.9,18-33.7,21.8-52.5L369.4,227.9z M86.9,181.3c0-27.5,22.3-49.8,49.8-49.8s49.8,22.3,49.8,49.8h-49.8H86.9z M199.8,290.2
	c-48.7,0-88.1-39.5-88.1-88.1h88.1h88.1C287.9,250.7,248.4,290.2,199.8,290.2z M262.3,181.3h-49.8c0-27.5,22.3-49.8,49.8-49.8
	s49.8,22.3,49.8,49.8H262.3z"/>
<path d="M199.8,293.7c-50.5,0-91.6-41.1-91.6-91.6l3.5-3.5h176.3l3.5,3.5C291.4,252.6,250.3,293.7,199.8,293.7z M115.2,205.5
	c1.8,45,39.1,81.1,84.6,81.1s82.7-36.1,84.6-81.1H115.2z M312.1,184.8h-99.6l-3.5-3.5c0-29.4,23.9-53.3,53.3-53.3
	s53.3,23.9,53.3,53.3L312.1,184.8z M216.1,177.8h92.4c-1.8-23.9-21.8-42.8-46.2-42.8S217.9,153.8,216.1,177.8z M186.6,184.8H86.9
	l-3.5-3.5c0-29.4,23.9-53.3,53.3-53.3c29.4,0,53.3,23.9,53.3,53.3L186.6,184.8z M90.5,177.8h92.4c-1.8-23.9-21.8-42.8-46.2-42.8
	C112.4,134.9,92.3,153.8,90.5,177.8z"/>
<path d="M199,371.2c-11.6,0-23.2-1.1-34.6-3.4l-2.8-4.1l4.9-25.2c-16.9-3.8-32.8-10.3-47.4-19.6l-13.7,21.4l-4.9,1
	c-9.6-6.4-18.6-13.8-26.8-22.1c-8.3-8.3-15.7-17.3-22.1-26.8l0.9-4.8l21.3-14.4c-9.3-14.6-15.9-30.5-19.6-47.4l-24.8,5.4l-4.2-2.7
	c-2.2-11.3-3.4-22.9-3.4-34.6s1.1-23.3,3.4-34.6l4.1-2.8l25.2,4.9c3.8-16.8,10.3-32.7,19.6-47.3l-21.4-13.8l-1-4.9
	c6.4-9.6,13.8-18.7,22-26.8c8.2-8.2,17.2-15.6,26.9-22.1l4.8,0.9l14.4,21.3c14.6-9.3,30.5-15.9,47.3-19.6l-5.4-24.8l2.7-4.2
	c11.4-2.3,23-3.4,34.5-3.4c0,0,0,0,0,0c11.6,0,23.2,1.1,34.6,3.4l2.8,4.1l-4.9,25.2c16.8,3.8,32.7,10.3,47.3,19.6l13.7-21.4l4.9-1
	c9.7,6.5,18.7,13.9,26.9,22c8.1,8.1,15.6,17.2,22,26.9l-0.9,4.8l-21.2,14.4c9.3,14.6,15.8,30.5,19.6,47.3l24.8-5.4l4.2,2.7
	c2.3,11.3,3.4,23,3.4,34.6c0,11.6-1.1,23.3-3.4,34.6l-4.1,2.8l-25.2-4.9c-3.8,16.8-10.3,32.7-19.6,47.3l21.4,13.7l1,4.9
	c-6.4,9.6-13.9,18.7-22.1,26.9c-8.2,8.2-17.3,15.7-26.8,22.1l-4.8-0.9l-14.4-21.3c-14.6,9.2-30.5,15.8-47.4,19.6l5.4,24.8l-2.7,4.2
	C222.2,370,210.5,371.2,199,371.2z M169.2,361.5c19.6,3.5,39.9,3.5,59.5,0l-5.4-24.8l2.7-4.2c18.4-3.7,35.7-10.8,51.2-21.2l4.8,0.9
	l14.3,21.2c8.1-5.7,15.8-12.1,22.9-19.2c7-7,13.5-14.7,19.2-22.9l-21.3-13.7l-1-4.9c10.4-15.6,17.6-32.8,21.2-51.2l4.1-2.8l25.1,4.8
	c1.7-9.8,2.6-19.8,2.6-29.8c0-9.9-0.9-19.9-2.6-29.7l-24.8,5.4l-4.2-2.7c-3.7-18.4-10.8-35.6-21.2-51.2l0.9-4.8l21.2-14.3
	c-5.7-8.2-12.2-15.9-19.2-22.9c-7-7-14.7-13.4-22.9-19.1l-13.7,21.3l-4.9,1c-15.6-10.4-32.8-17.6-51.2-21.2l-2.8-4.1l4.8-25.1
	c-9.8-1.7-19.8-2.6-29.8-2.6c0,0,0,0,0,0c-9.9,0-19.9,0.9-29.7,2.6l5.4,24.8l-2.7,4.2c-18.4,3.7-35.6,10.8-51.2,21.2l-4.8-0.9
	l-14.3-21.2c-8.2,5.7-15.9,12.2-22.9,19.2c-7,7-13.5,14.7-19.1,22.8l21.3,13.7l1,4.9c-10.4,15.6-17.6,32.8-21.2,51.2l-4.1,2.8
	l-25.1-4.9c-1.7,9.8-2.6,19.8-2.6,29.8c0,10,0.9,20,2.6,29.7l24.8-5.4l4.2,2.7c3.7,18.4,10.8,35.6,21.2,51.2l-0.9,4.8l-21.2,14.3
	c5.7,8.1,12.1,15.8,19.2,22.9c7.1,7.1,14.7,13.5,22.8,19.2l13.7-21.3l4.9-1c15.6,10.4,32.8,17.6,51.2,21.2l2.8,4.1L169.2,361.5z"/>
</svg>
