<?xml version="1.0" encoding="UTF-8" standalone="no"?>
<!-- Created with Inkscape (http://www.inkscape.org/) -->

<svg
   xmlns:dc="http://purl.org/dc/elements/1.1/"
   xmlns:cc="http://creativecommons.org/ns#"
   xmlns:rdf="http://www.w3.org/1999/02/22-rdf-syntax-ns#"
   xmlns:svg="http://www.w3.org/2000/svg"
   xmlns="http://www.w3.org/2000/svg"
   xmlns:sodipodi="http://sodipodi.sourceforge.net/DTD/sodipodi-0.dtd"
   xmlns:inkscape="http://www.inkscape.org/namespaces/inkscape"
   width="90mm"
   height="50mm"
   id="svg2985"
   version="1.1"
   inkscape:version="0.48.4 r9939"
   sodipodi:docname="stamp.svg">
  <defs
     id="defs3" />
  <sodipodi:namedview
     id="base"
     pagecolor="#ffffff"
     bordercolor="#666666"
     borderopacity="1.0"
     inkscape:pageopacity="0.0"
     inkscape:pageshadow="2"
     inkscape:zoom="1.2"
     inkscape:cx="12.5"
     inkscape:cy="90"
     inkscape:document-units="mm"
     inkscape:current-layer="layer1"
     showgrid="false"
     inkscape:window-width="1551"
     inkscape:window-height="876"
     inkscape:window-x="49"
     inkscape:window-y="24"
     inkscape:window-maximized="1" />
  <metadata
     id="metadata2989">
    <rdf:RDF>
      <cc:Work
         rdf:about="">
        <dc:format>image/svg+xml</dc:format>
        <dc:type
           rdf:resource="http://purl.org/dc/dcmitype/StillImage" />
        <dc:title></dc:title>
      </cc:Work>
    </rdf:RDF>
  </metadata>
  <g
     inkscape:label="Layer 1"
     inkscape:groupmode="layer"
     id="layer1">
    <g
       transform="matrix(0.47564887,0,0,0.47564887,-77.399157,-179.93216)"
       style="stroke:#000000;stroke-opacity:1;display:inline;fill-rule:evenodd;fill:none;fill-opacity:1"
       id="layer1-6"
       inkscape:label="Layer 1">
      <path
         sodipodi:nodetypes="sccccsccccsccccsccccsccccsccccsccccsccccs"
         inkscape:connector-curvature="0"
         id="path2996-1-5-1-7-1-1-2-2"
         d="m 351.07811,392.1875 c -11.38737,-10e-4 -22.71289,1.12347 -33.875,3.34375 l 6.15625,28.28125 c -18.75052,3.72972 -36.57284,11.12872 -52.46875,21.75 l -16.3125,-24.125 c -9.46277,6.32284 -18.29187,13.57221 -26.34375,21.625 -8.05189,8.05277 -15.27092,16.84972 -21.59375,26.3125 l 24.375,15.65625 c -10.62131,15.89593 -18.02028,33.71826 -21.75,52.46875 l -28.59375,-5.53125 c -2.22027,11.16212 -3.31247,22.51635 -3.3125,33.90625 -6e-5,11.3899 1.09222,22.74414 3.3125,33.90625 l 28.28125,-6.1875 c 3.72972,18.75052 11.12871,36.60409 21.75,52.5 l -24.125,16.3125 c 6.32284,9.46278 13.57483,18.26034 21.625,26.3125 8.05017,8.05216 16.84972,15.30217 26.3125,21.625 l 15.625,-24.375 c 15.89593,10.62131 33.74951,18.02028 52.5,21.75 l -5.53125,28.5625 c 11.16212,2.22028 22.51371,3.34331 33.90625,3.34375 11.39255,4.5e-4 22.74413,-1.12347 33.90625,-3.34375 L 378.73436,708 c 18.75052,-3.72971 36.60409,-11.09745 52.5,-21.71875 l 16.3125,24.125 c 9.46278,-6.32284 18.25616,-13.56861 26.3125,-21.625 8.05634,-8.05639 15.30217,-16.88095 21.625,-26.34375 l -24.375,-15.625 c 10.62131,-15.89591 18.02029,-33.71824 21.75,-52.46875 l 28.59375,5.5 c 2.22028,-11.16213 3.3195,-22.52024 3.3125,-33.90625 -0.007,-11.38602 -1.12347,-22.71289 -3.34375,-33.875 l -28.28125,6.15625 C 489.41089,519.46823 482.04314,501.64591 471.42186,485.75 l 24.09375,-16.3125 C 489.19277,459.97473 481.97465,451.14563 473.92186,443.09375 465.8691,435.04186 457.04089,427.82283 447.57811,421.5 l -15.625,24.375 c -15.89593,-10.62131 -33.71826,-18.02028 -52.46875,-21.75 l 5.5,-28.59375 c -11.16212,-2.22027 -22.51887,-3.34276 -33.90625,-3.34375 z"
         style="fill:none;fill-opacity:1;stroke:#000000;stroke-width:7;stroke-linecap:butt;stroke-linejoin:bevel;stroke-miterlimit:1.60000001999999997;stroke-opacity:1;stroke-dasharray:none;stroke-dashoffset:0;display:inline;fill-rule:evenodd" />
      <path
         sodipodi:nodetypes="scccsscccscccsc"
         inkscape:connector-curvature="0"
         id="path2996-1-5-1-7-1-1-2"
         d="m 288.8125,503.40625 c 27.51434,0 49.8125,22.29816 49.8125,49.8125 l -49.8125,0 -49.84375,0 c 0,-27.51434 22.32941,-49.8125 49.84375,-49.8125 z m 125.5,0 c 27.51434,0 49.8125,22.29816 49.8125,49.8125 l -49.8125,0 -49.8125,0 c 0,-27.51434 22.29816,-49.8125 49.8125,-49.8125 z M 263.68913,574 l 88.125,0 88.125,0 c 0,48.67125 -39.45375,88.125 -88.125,88.125 -48.67125,0 -88.125,-39.45375 -88.125,-88.125 z"
         style="fill:none;fill-opacity:1;stroke:#000000;stroke-width:7;stroke-linecap:butt;stroke-linejoin:bevel;stroke-miterlimit:1.60000001999999997;stroke-opacity:1;stroke-dasharray:none;stroke-dashoffset:0;display:inline;fill-rule:evenodd" />
    </g>
    <text
       xml:space="preserve"
       style="font-size:30.22527504px;font-style:normal;font-weight:normal;line-height:125%;letter-spacing:0px;word-spacing:0px;fill:#000000;fill-opacity:1;stroke:none;font-family:Sans"
       x="196.71393"
       y="42.238865"
       id="text3087"
       sodipodi:linespacing="125%"><tspan
         sodipodi:role="line"
         id="tspan3089"
         x="196.71393"
         y="42.238865">/dev/lol</tspan></text>
    <text
       xml:space="preserve"
       style="font-size:18.31784439px;font-style:normal;font-weight:normal;line-height:125%;letter-spacing:0px;word-spacing:0px;fill:#000000;fill-opacity:1;stroke:none;font-family:Sans"
       x="195.99844"
       y="118.38731"
       id="text3091"
       sodipodi:linespacing="125%"><tspan
         sodipodi:role="line"
         id="tspan3093"
         x="195.99844"
         y="118.38731">Hackerspace</tspan><tspan
         sodipodi:role="line"
         x="195.99844"
         y="141.28461"
         id="tspan3095">Linz</tspan><tspan
         sodipodi:role="line"
         x="195.99844"
         y="164.18192"
         id="tspan3097">Hofgasse 30</tspan></text>
  </g>
</svg>
